# xmcd
#
# Track frame offsets:
#	150
#	13528
#	25969
#	41616
#	52472
#	61657
#	74010
#	88487
#	99833
#	113336
#	123801
#	133114
#	143704
#	153485
#	163268
#	173270
#
# Disc length: 2493 seconds
#
# Revision: 1
# Processed by: cddbd v1.5.2PL0 Copyright (c) Steve Scherf et al.
# Submitted via: audiograbber 1.83.01
#
DISCID=d509bb10
DTITLE=Various Artist - Country Legends CD2 Jambalaya
DYEAR=1900
DGENRE=Country
TTITLE0=Kenny Rogers - Ruby, Don't Take Your Love To Town
TTITLE1=Willie Nelson - Shelter Of Your Arms
TTITLE2=Anne Murray - There Goes My Everything
TTITLE3=Hank Locklin - Please Help Me I'm Falling
TTITLE4=Jerry Lee Lewis - Jambalaya
TTITLE5=Dolly Parton - Two Little Orphans
TTITLE6=Frankie Laine - Jezebel
TTITLE7=Buddy Blake - You Pass Me By
TTITLE8=Billie Jo Speras - Fever
TTITLE9=Jerry Wallace - You're Singing Our Love Song To Somebody
TTITLE10=Dave Dudley - Truck Drivin' Man
TTITLE11=Patsy Cline - He Will Do For You
TTITLE12=Ed Bruce - King Of Fools
TTITLE13=Donna Fargo - Sticks And Stones
TTITLE14=Buck Owens - I've Got A Tiger By The Tail
TTITLE15=Barbara Fairchild - Crazy Love
EXTD=
EXTT0=
EXTT1=
EXTT2=
EXTT3=
EXTT4=
EXTT5=
EXTT6=
EXTT7=
EXTT8=
EXTT9=
EXTT10=
EXTT11=
EXTT12=
EXTT13=
EXTT14=
EXTT15=
PLAYORDER=
